<?xml version="1.0" encoding="UTF-8" standalone="no"?>
<!-- Created with Inkscape (http://www.inkscape.org/) -->

<svg
   width="77.759178mm"
   height="101.67675mm"
   viewBox="0 0 77.759178 101.67675"
   version="1.1"
   id="svg5"
   inkscape:version="1.1.2 (0a00cf5339, 2022-02-04)"
   sodipodi:docname="FEBioChem.svg"
   xmlns:inkscape="http://www.inkscape.org/namespaces/inkscape"
   xmlns:sodipodi="http://sodipodi.sourceforge.net/DTD/sodipodi-0.dtd"
   xmlns:xlink="http://www.w3.org/1999/xlink"
   xmlns="http://www.w3.org/2000/svg"
   xmlns:svg="http://www.w3.org/2000/svg">
  <sodipodi:namedview
     id="namedview7"
     pagecolor="#ffffff"
     bordercolor="#666666"
     borderopacity="1.0"
     inkscape:pageshadow="2"
     inkscape:pageopacity="0.0"
     inkscape:pagecheckerboard="0"
     inkscape:document-units="mm"
     showgrid="false"
     inkscape:snap-global="false"
     objecttolerance="10000"
     guidetolerance="10000"
     inkscape:snap-path-mask="true"
     inkscape:snap-path-clip="true"
     inkscape:snap-perpendicular="true"
     inkscape:snap-tangential="true"
     inkscape:zoom="1"
     inkscape:cx="-132.5"
     inkscape:cy="275"
     inkscape:window-width="1920"
     inkscape:window-height="1011"
     inkscape:window-x="0"
     inkscape:window-y="32"
     inkscape:window-maximized="1"
     inkscape:current-layer="layer1"
     fit-margin-top="0"
     fit-margin-left="0"
     fit-margin-right="0"
     fit-margin-bottom="0" />
  <defs
     id="defs2">
    <linearGradient
       inkscape:collect="always"
       id="linearGradient4331">
      <stop
         style="stop-color:#90bdf4;stop-opacity:1"
         offset="0"
         id="stop4327" />
      <stop
         style="stop-color:#dcf0fb;stop-opacity:1"
         offset="1"
         id="stop4329" />
    </linearGradient>
    <linearGradient
       inkscape:collect="always"
       xlink:href="#linearGradient4331"
       id="linearGradient4333"
       x1="32.936653"
       y1="71.147705"
       x2="33.479263"
       y2="38.469654"
       gradientUnits="userSpaceOnUse"
       gradientTransform="matrix(2.120807,0,0,1.7315476,37.408648,123.22269)" />
    <linearGradient
       inkscape:collect="always"
       xlink:href="#linearGradient4331"
       id="linearGradient72417"
       x1="144.46892"
       y1="86.022148"
       x2="151.82104"
       y2="79.529869"
       gradientUnits="userSpaceOnUse"
       gradientTransform="translate(-25.458308,119.24054)" />
    <linearGradient
       inkscape:collect="always"
       xlink:href="#linearGradient4331"
       id="linearGradient93715"
       gradientUnits="userSpaceOnUse"
       gradientTransform="translate(-28.805391,133.61537)"
       x1="143.20909"
       y1="87.111046"
       x2="150.98796"
       y2="80.397491" />
    <linearGradient
       inkscape:collect="always"
       xlink:href="#linearGradient4331"
       id="linearGradient72417-9"
       x1="144.46892"
       y1="86.022148"
       x2="153.05345"
       y2="79.551109"
       gradientUnits="userSpaceOnUse"
       gradientTransform="translate(-46.244783,122.74923)" />
    <linearGradient
       inkscape:collect="always"
       xlink:href="#linearGradient4331"
       id="linearGradient72417-0"
       x1="144.36798"
       y1="86.428383"
       x2="154.21414"
       y2="80.330391"
       gradientUnits="userSpaceOnUse"
       gradientTransform="translate(-45.56197,146.4168)" />
    <linearGradient
       inkscape:collect="always"
       xlink:href="#linearGradient4331"
       id="linearGradient72417-06"
       x1="146.02821"
       y1="84.126869"
       x2="151.62509"
       y2="81.830887"
       gradientUnits="userSpaceOnUse"
       gradientTransform="translate(-18.140322,151.77732)" />
    <inkscape:path-effect
       effect="powerstroke"
       id="path-effect3416"
       is_visible="true"
       lpeversion="1"
       offset_points="0,4.99214"
       not_jump="false"
       sort_points="true"
       interpolator_type="CubicBezierJohan"
       interpolator_beta="0.2"
       start_linecap_type="zerowidth"
       linejoin_type="extrp_arc"
       miter_limit="4"
       scale_width="1"
       end_linecap_type="zerowidth"
       message="" />
    <inkscape:path-effect
       effect="powerstroke"
       id="path-effect3327"
       is_visible="true"
       lpeversion="1"
       offset_points="0,4.99214"
       not_jump="false"
       sort_points="true"
       interpolator_type="CubicBezierJohan"
       interpolator_beta="0.2"
       start_linecap_type="zerowidth"
       linejoin_type="extrp_arc"
       miter_limit="4"
       scale_width="1"
       end_linecap_type="zerowidth"
       message="" />
  </defs>
  <g
     inkscape:label="Layer 1"
     inkscape:groupmode="layer"
     id="layer1"
     transform="translate(-73.694776,-148.49414)">
    <path
       id="rect2149"
       style="fill:url(#linearGradient4333);fill-opacity:1;stroke-width:0.507823"
       d="m 89.893807,189.71968 c -1.01724,3.96359 -2.16531,8.27665 -3.19619,11.94035 -9.727817,34.57243 -9.96876,35.66809 -8.73383,39.66631 0.46122,1.49327 0.81256,2.0523 2.09858,3.3383 l 1.54461,1.54515 30.819313,-0.0698 30.81925,-0.0692 1.14722,-0.80203 c 3.77116,-2.63677 4.23809,-6.88187 1.96319,-17.8511 -1.65232,-7.96726 -1.94602,-9.26552 -4.48603,-19.84376 -1.84711,-7.69251 -3.20441,-13.42934 -4.19871,-17.8542 z"
       sodipodi:nodetypes="csscccccsscc" />
    <path
       style="fill:#022077;fill-opacity:1;stroke-width:0.264583"
       d="m 80.053285,249.49311 c -2.75388,-1.5679 -5.16605,-4.67702 -5.94307,-7.66018 -1.02375,-3.93045 -0.31798,-8.08224 3.95726,-23.27926 10.09761,-35.89348 11.55941,-41.91557 11.0071,-45.34511 -0.46132,-2.86456 -2.04787,-5.10792 -4.82445,-6.82172 -0.85305,-0.52654 -1.55101,-0.98377 -1.55101,-1.01608 0,-0.0323 0.33192,-0.78994 0.7376,-1.68363 l 0.73759,-1.62489 1.3807,0.71142 c 3.04382,1.56838 5.93539,4.95293 6.81624,7.97833 0.59183,2.03277 0.66916,5.00634 0.20068,7.71731 -0.50286,2.9099 -3.51812,14.80934 -5.87631,23.19029 -9.72782,34.57242 -9.96909,35.66815 -8.73416,39.66638 0.46122,1.49325 0.81274,2.0524 2.09876,3.33842 l 1.54475,1.54475 30.819135,-0.0694 30.81913,-0.0694 1.1472,-0.80213 c 3.77116,-2.63677 4.23798,-6.88175 1.96308,-17.851 -1.65232,-7.96725 -1.9458,-9.26551 -4.48581,-19.84375 -6.17292,-25.70796 -6.96712,-29.90823 -6.50282,-34.39148 0.37123,-3.58458 1.43067,-6.16908 3.60463,-8.79354 1.01215,-1.22189 2.88532,-2.85248 3.27684,-2.85248 0.11429,0 0.63599,0.68454 1.15932,1.5212 0.88736,1.41863 0.91994,1.54363 0.48341,1.85413 -3.09043,2.19809 -4.83663,5.82601 -4.86421,10.10592 -0.0253,3.92805 1.05572,9.20017 6.49886,31.69458 4.37953,18.09889 5.67998,24.60179 5.88673,29.43667 0.16657,3.89498 -0.12324,5.75593 -1.25411,8.05304 -1.05511,2.14325 -2.72974,3.81844 -4.93744,4.9391 l -1.77001,0.89849 -31.10249,0.0659 -31.102505,0.0659 z"
       id="path965" />
    <circle
       style="fill:url(#linearGradient72417);fill-opacity:1;fill-rule:evenodd;stroke:#a6e4fc;stroke-width:0.465;stroke-miterlimit:4;stroke-dasharray:none;stroke-opacity:1"
       id="path44282"
       cx="122.54395"
       cy="202.42264"
       r="4.6290712" />
    <circle
       style="fill:url(#linearGradient72417-9);fill-opacity:1;fill-rule:evenodd;stroke:#a6e4fc;stroke-width:0.465;stroke-miterlimit:4;stroke-dasharray:none;stroke-opacity:1"
       id="path44282-7"
       cx="101.75747"
       cy="205.93134"
       r="4.6290712" />
    <circle
       style="fill:url(#linearGradient72417-0);fill-opacity:1;fill-rule:evenodd;stroke:#a6e4fc;stroke-width:0.465;stroke-miterlimit:4;stroke-dasharray:none;stroke-opacity:1"
       id="path44282-6"
       cx="102.44027"
       cy="229.59891"
       r="4.6290712" />
    <circle
       style="fill:url(#linearGradient72417-06);fill-opacity:1;fill-rule:evenodd;stroke:#a6e4fc;stroke-width:0.465;stroke-miterlimit:4;stroke-dasharray:none;stroke-opacity:1"
       id="path44282-1"
       cx="129.86194"
       cy="234.95944"
       r="4.6290712" />
    <circle
       style="fill:url(#linearGradient93715);fill-opacity:1;fill-rule:evenodd;stroke:#a6e4fc;stroke-width:0.465;stroke-miterlimit:4;stroke-dasharray:none;stroke-opacity:1"
       id="path44282-2"
       cx="119.19688"
       cy="216.79749"
       r="4.6290712" />
    <g
       id="g1274"
       transform="matrix(0.142969,0,0,0.142969,106.52079,144.79919)">
      <path
         id="path22422-2"
         style="fill:#d40000;fill-opacity:1;stroke:none;stroke-width:15.1161px;stroke-linecap:butt;stroke-linejoin:miter;stroke-opacity:1"
         d="m -82.021348,101.95605 23.418725,99.37119 86.130143,85.67643 V 139.29382 Z" />
      <path
         style="fill:#800000;fill-opacity:1;stroke:none;stroke-width:15.1161px;stroke-linecap:butt;stroke-linejoin:miter;stroke-opacity:1"
         d="m -82.021532,101.95603 23.418845,99.37141 86.129999,85.67637 z"
         id="path22422" />
      <path
         id="path28451-9"
         style="fill:#800000;fill-opacity:1;stroke:none;stroke-width:15.1161px;stroke-linecap:butt;stroke-linejoin:miter;stroke-opacity:1"
         d="M 188.9125,101.95605 79.36363,139.29382 v 147.70985 l 86.13014,-85.67643 z" />
      <path
         style="fill:#aa0000;fill-opacity:1;stroke:none;stroke-width:15.1161px;stroke-linecap:butt;stroke-linejoin:miter;stroke-opacity:1"
         d="m 188.91262,101.956 -23.41884,99.37141 -86.130001,85.67637 z"
         id="path28451" />
      <path
         id="path8844"
         style="fill:#800000;fill-opacity:1;stroke:none;stroke-width:15.1399;stroke-linecap:butt;stroke-linejoin:miter;stroke-miterlimit:4;stroke-dasharray:none;stroke-opacity:1"
         d="M 53.104769,25.844417 -49.312234,88.375484 53.111487,127.85318 155.52384,88.375484 Z" />
      <path
         id="path36783"
         style="fill:#d40000;fill-opacity:1;stroke:none;stroke-width:15.1161px;stroke-linecap:butt;stroke-linejoin:miter;stroke-opacity:1"
         d="M 53.10502,25.844616 -49.312378,88.375644 h 102.387771 0.06046 102.387927 z" />
      <path
         id="path17847"
         style="fill:#aa0000;fill-opacity:1;stroke:none;stroke-width:15.1161px;stroke-linecap:butt;stroke-linejoin:miter;stroke-opacity:1"
         d="M -51.155017,106.70408 53.488208,195.4816 158.14952,106.70408 H 53.506295 Z M 53.488208,195.4816 v 0.005 L -51.154499,106.70975 53.488208,295.80107 158.15003,106.70975 Z" />
      <path
         id="path17849"
         style="fill:#800000;fill-opacity:1;stroke:none;stroke-width:15.1161px;stroke-linecap:butt;stroke-linejoin:miter;stroke-opacity:1"
         d="M -51.154499,106.70976 53.488208,295.80107 53.488737,195.48729 158.15003,106.70976 H 53.506811 Z" />
      <path
         style="fill:#d40000;fill-opacity:1;stroke:none;stroke-width:15.1161px;stroke-linecap:butt;stroke-linejoin:miter;stroke-opacity:1"
         d="M -51.154425,106.7098 53.488818,195.48735 158.15005,106.7098 H 53.506806 Z"
         id="path42665"
         sodipodi:nodetypes="ccccc" />
    </g>
  </g>
</svg>
